<svg width="384" height="77" viewBox="0 0 384 77" fill="none" xmlns="http://www.w3.org/2000/svg">
<path d="M18.8895 77C9.34869 77 2.81741 72.4058 0.064032 63.4116C0.064032 63.4116 0 63.2174 0 63.0233C0 62.6351 0.192096 62.3763 0.640321 62.3116L8.19611 60.4998C8.58031 60.4998 8.83643 60.6939 8.9645 61.1468C10.8214 65.741 13.7029 67.8116 18.8895 67.8116C23.82 67.8116 27.1496 66.194 27.1496 62.3116C27.1496 58.4939 24.012 56.5526 18.8254 54.6762L14.3432 53.0585C6.14708 50.2114 1.28064 45.4878 1.28064 38.0465C1.28064 29.6346 8.64434 23.6169 18.3772 23.6169C26.8935 23.6169 33.2327 27.564 35.794 36.17C35.858 36.2347 35.858 36.3641 35.858 36.5583C35.858 36.8818 35.6659 37.1406 35.2177 37.27L27.854 39.1465C27.7899 39.1465 27.6619 39.1465 27.5338 39.2112C27.4057 39.2759 27.2777 39.2759 27.2137 39.2759C26.8935 39.2759 26.6374 39.0818 26.4453 38.6289C24.7164 34.4229 22.2191 32.8053 18.3772 32.8053C13.8309 32.8053 11.0135 34.7465 11.0135 37.7877C11.0135 40.9583 13.6388 43.0936 19.5938 45.0995L23.1796 46.329C32.4003 49.3702 36.8825 53.835 36.8825 62.3116C36.8825 70.8528 29.5188 77 18.8895 77Z" fill="#6B7280"/>
<path d="M54.2007 75.1235C54.2007 75.7059 53.8805 76.0294 53.3042 76.0294H45.7485C45.1722 76.0294 44.852 75.7059 44.852 75.1235V25.4934C44.852 24.911 45.1722 24.5875 45.7485 24.5875H53.3042C53.8805 24.5875 54.2007 24.911 54.2007 25.4934V75.1235Z" fill="#6B7280"/>
<path d="M79.2588 76.0294C78.7465 76.0294 78.3623 75.7059 78.3623 75.1235V33.517H62.6104C62.0982 33.517 61.778 33.1288 61.778 32.6111V25.4934C61.778 24.911 62.0982 24.5875 62.6104 24.5875H103.399C103.975 24.5875 104.295 24.911 104.295 25.4934V32.6111C104.295 33.1288 103.975 33.517 103.399 33.517H87.775V75.1235C87.775 75.7059 87.3908 76.0294 86.8146 76.0294H79.2588Z" fill="#6B7280"/>
<path d="M132.5 77C117.516 77 107.72 66.3881 107.72 50.3408C107.72 34.0347 118.093 23.6169 132.692 23.6169C143.385 23.6169 151.069 28.5993 154.463 37.3994C154.527 37.4641 154.527 37.5936 154.527 37.7877C154.527 38.2406 154.335 38.4995 153.887 38.6289L146.139 40.7642C145.819 40.7642 145.563 40.5701 145.37 40.1818C143.001 35.4582 138.647 32.87 132.82 32.87C123.151 32.87 117.388 39.7936 117.388 50.3408C117.388 60.6939 123.023 67.7469 132.82 67.7469C139.287 67.7469 144.154 64.7057 146.459 58.235C146.651 57.6527 146.971 57.4585 147.548 57.588L154.911 59.7233C155.488 59.8527 155.616 60.1115 155.616 60.3703C155.616 60.4998 155.488 60.9527 155.423 61.0821C152.542 70.594 144.602 77 132.5 77Z" fill="#6B7280"/>
<path d="M199.945 2.38981C204.381 -1.05053 209.677 0.235255 209.677 0.235255C209.677 0.235255 208.783 6.59467 204.347 10.035C199.911 13.4753 193.549 12.6413 193.549 12.6413C193.549 12.6413 194.924 10.5563 196.3 7.81095C197.125 6.21241 198.294 3.64084 199.945 2.38981Z" fill="#6B7280"/>
<path d="M189.25 7.56771C187.187 5.96917 184.711 6.55993 184.711 6.55993C184.711 6.55993 185.124 9.5485 187.187 11.147C189.25 12.7456 192.208 12.3633 192.208 12.3633C192.208 12.3633 191.554 11.3903 190.935 10.1045C190.557 9.34 190.007 8.15847 189.25 7.56771Z" fill="#6B7280"/>
<path d="M189.766 22.7539C190.385 22.7539 190.97 22.7886 191.589 22.8234C191.038 19.5568 191.142 16.1859 192.827 13.2669C189.904 15.6299 188.494 19.244 187.772 22.8581C188.425 22.7886 189.078 22.7539 189.766 22.7539Z" fill="#6B7280"/>
<path d="M189.766 23.8311C175.185 23.8311 163.356 35.7507 163.356 50.4156C163.356 65.1152 175.185 77 189.766 77C204.347 77 216.177 65.0804 216.177 50.4156C216.142 35.7507 204.347 23.8311 189.766 23.8311ZM200.53 61.2926L189.732 53.8212L178.934 61.2926L186.362 50.4156L178.934 39.5385L189.732 47.01L200.53 39.5385L193.102 50.4156L200.53 61.2926Z" fill="#6B7280"/>
<path d="M224.813 77C224.237 77 223.917 76.6765 223.917 76.0941V26.464C223.917 25.8816 224.237 25.5581 224.813 25.5581H232.753C233.201 25.5581 233.586 25.7522 233.906 26.2052L256.445 61.2762V26.464C256.445 25.8816 256.765 25.5581 257.341 25.5581H264.769C265.345 25.5581 265.666 25.8816 265.666 26.464V76.0941C265.666 76.6765 265.345 77 264.769 77H256.829C256.381 77 255.997 76.8059 255.741 76.3529L233.137 41.2171V76.0941C233.137 76.6765 232.817 77 232.241 77H224.813Z" fill="#6B7280"/>
<path d="M290.715 77C290.202 77 289.818 76.6765 289.818 76.0941V34.4876H274.066C273.554 34.4876 273.234 34.0994 273.234 33.5817V26.464C273.234 25.8816 273.554 25.5581 274.066 25.5581H314.855C315.431 25.5581 315.751 25.8816 315.751 26.464V33.5817C315.751 34.0994 315.431 34.4876 314.855 34.4876H299.231V76.0941C299.231 76.6765 298.847 77 298.27 77H290.715Z" fill="#6B7280"/>
<path d="M332.753 76.0941C332.753 76.6765 332.433 77 331.856 77H324.301C323.724 77 323.404 76.6765 323.404 76.0941V26.464C323.404 25.8816 323.724 25.5581 324.301 25.5581H331.856C332.433 25.5581 332.753 25.8816 332.753 26.464V76.0941Z" fill="#6B7280"/>
<path d="M341.098 26.7875C340.97 26.5934 340.906 26.3346 340.906 26.2052C340.906 25.8169 341.163 25.5581 341.675 25.5581H350.191C350.703 25.5581 351.023 25.7522 351.28 26.2052L361.973 43.9348L372.602 26.2052C372.858 25.7522 373.179 25.5581 373.627 25.5581H382.079C382.591 25.5581 382.911 25.8169 382.911 26.1405C382.911 26.3346 382.847 26.464 382.719 26.6581L367.736 50.3408L383.744 75.7059C383.872 75.9 384 76.1588 384 76.3529C384 76.7412 383.744 77 383.232 77H374.715C374.203 77 373.947 76.8059 373.627 76.3529L361.781 56.8115L350.063 76.3529C349.807 76.8059 349.487 77 349.038 77H340.586C340.074 77 339.818 76.7412 339.818 76.3529C339.818 76.1588 339.882 75.9 340.01 75.7706L356.018 50.4702L341.098 26.7875Z" fill="#6B7280"/>
</svg>
