<svg width="1373" height="272" viewBox="0 0 1373 272" fill="none" xmlns="http://www.w3.org/2000/svg">
<path d="M67.5397 272C33.4264 272 10.0737 255.771 0.228948 223.999C0.228948 223.999 0 223.314 0 222.628C0 221.256 0.686844 220.342 2.28948 220.114L29.3054 213.713C30.6791 213.713 31.5949 214.399 32.0527 215.999C38.6922 232.228 48.9949 239.542 67.5397 239.542C85.1687 239.542 97.074 233.828 97.074 220.114C97.074 206.628 85.8556 199.77 67.3108 193.142L51.2844 187.427C21.979 177.37 4.57896 160.684 4.57896 134.398C4.57896 104.683 30.908 83.4259 65.7081 83.4259C96.1582 83.4259 118.824 97.369 127.982 127.769C128.211 127.998 128.211 128.455 128.211 129.141C128.211 130.284 127.524 131.198 125.922 131.655L99.5925 138.284C99.3635 138.284 98.9056 138.284 98.4477 138.512C97.9898 138.741 97.5319 138.741 97.303 138.741C96.1582 138.741 95.2425 138.055 94.5556 136.455C88.374 121.598 79.445 115.884 65.7081 115.884C49.4528 115.884 39.3791 122.741 39.3791 133.484C39.3791 144.684 48.766 152.227 70.0582 159.313L82.8792 163.656C115.848 174.399 131.874 190.17 131.874 220.114C131.874 250.285 105.545 272 67.5397 272Z" fill="#F9FAFB"/>
<path d="M193.796 265.371C193.796 267.428 192.651 268.571 190.59 268.571H163.575C161.514 268.571 160.369 267.428 160.369 265.371V90.0546C160.369 87.9974 161.514 86.8545 163.575 86.8545H190.59C192.651 86.8545 193.796 87.9974 193.796 90.0546V265.371Z" fill="#F9FAFB"/>
<path d="M283.391 268.571C281.56 268.571 280.186 267.428 280.186 265.371V118.398H223.865C222.033 118.398 220.889 117.026 220.889 115.198V90.0546C220.889 87.9974 222.033 86.8545 223.865 86.8545H369.705C371.765 86.8545 372.91 87.9974 372.91 90.0546V115.198C372.91 117.026 371.765 118.398 369.705 118.398H313.841V265.371C313.841 267.428 312.468 268.571 310.407 268.571H283.391Z" fill="#F9FAFB"/>
<path d="M473.756 272C420.183 272 385.153 234.514 385.153 177.827C385.153 120.226 422.243 83.4259 474.443 83.4259C512.678 83.4259 540.151 101.026 552.286 132.112C552.515 132.341 552.515 132.798 552.515 133.484C552.515 135.084 551.828 135.998 550.225 136.455L522.522 143.998C521.378 143.998 520.462 143.312 519.775 141.941C511.304 125.255 495.735 116.112 474.901 116.112C440.33 116.112 419.725 140.57 419.725 177.827C419.725 214.399 439.872 239.314 474.901 239.314C498.025 239.314 515.425 228.571 523.667 205.713C524.354 203.656 525.499 202.97 527.559 203.428L553.888 210.971C555.949 211.428 556.407 212.342 556.407 213.256C556.407 213.713 555.949 215.313 555.72 215.771C545.417 249.371 517.028 272 473.756 272Z" fill="#F9FAFB"/>
<path d="M714.908 8.44193C730.77 -3.71096 749.705 0.831032 749.705 0.831032C749.705 0.831032 746.508 23.2955 730.647 35.4483C714.785 47.6012 692.038 44.6551 692.038 44.6551C692.038 44.6551 696.956 37.2897 701.875 27.5919C704.826 21.9451 709.006 12.8612 714.908 8.44193Z" fill="#F9FAFB"/>
<path d="M676.668 26.7327C669.291 21.0859 660.438 23.1727 660.438 23.1727C660.438 23.1727 661.914 33.7298 669.291 39.3766C676.668 45.0234 687.243 43.673 687.243 43.673C687.243 43.673 684.907 40.2359 682.693 35.6939C681.341 32.9932 679.373 28.8195 676.668 26.7327Z" fill="#F9FAFB"/>
<path d="M678.513 80.3773C680.726 80.3773 682.816 80.5 685.029 80.6228C683.062 69.0837 683.431 57.1763 689.456 46.8647C679.005 55.2122 673.963 67.9789 671.381 80.7455C673.717 80.5 676.054 80.3773 678.513 80.3773Z" fill="#F9FAFB"/>
<path d="M678.513 84.1826C626.379 84.1826 584.082 126.288 584.082 178.091C584.082 230.017 626.379 272 678.513 272C730.647 272 772.944 229.895 772.944 178.091C772.821 126.288 730.647 84.1826 678.513 84.1826ZM716.998 216.514L678.39 190.121L639.781 216.514L666.34 178.091L639.781 139.669L678.39 166.061L716.998 139.669L690.44 178.091L716.998 216.514Z" fill="#F9FAFB"/>
<path d="M803.824 272C801.764 272 800.619 270.857 800.619 268.8V93.4832C800.619 91.426 801.764 90.2832 803.824 90.2832H832.214C833.816 90.2832 835.19 90.9689 836.335 92.5689L916.924 216.456V93.4832C916.924 91.426 918.069 90.2832 920.13 90.2832H946.688C948.748 90.2832 949.893 91.426 949.893 93.4832V268.8C949.893 270.857 948.748 272 946.688 272H918.298C916.696 272 915.322 271.314 914.406 269.714L833.587 145.598V268.8C833.587 270.857 832.443 272 830.382 272H803.824Z" fill="#F9FAFB"/>
<path d="M1039.46 272C1037.62 272 1036.25 270.857 1036.25 268.8V121.826H979.93C978.098 121.826 976.954 120.455 976.954 118.626V93.4832C976.954 91.426 978.098 90.2832 979.93 90.2832H1125.77C1127.83 90.2832 1128.98 91.426 1128.98 93.4832V118.626C1128.98 120.455 1127.83 121.826 1125.77 121.826H1069.91V268.8C1069.91 270.857 1068.53 272 1066.47 272H1039.46Z" fill="#F9FAFB"/>
<path d="M1189.76 268.8C1189.76 270.857 1188.62 272 1186.56 272H1159.54C1157.48 272 1156.34 270.857 1156.34 268.8V93.4832C1156.34 91.426 1157.48 90.2832 1159.54 90.2832H1186.56C1188.62 90.2832 1189.76 91.426 1189.76 93.4832V268.8Z" fill="#F9FAFB"/>
<path d="M1219.6 94.6261C1219.15 93.9403 1218.92 93.026 1218.92 92.5689C1218.92 91.1975 1219.83 90.2832 1221.67 90.2832H1252.12C1253.95 90.2832 1255.09 90.9689 1256.01 92.5689L1294.24 155.198L1332.25 92.5689C1333.16 90.9689 1334.31 90.2832 1335.91 90.2832H1366.13C1367.96 90.2832 1369.11 91.1975 1369.11 92.3403C1369.11 93.026 1368.88 93.4832 1368.42 94.1689L1314.85 177.827L1372.08 267.428C1372.54 268.114 1373 269.029 1373 269.714C1373 271.086 1372.08 272 1370.25 272H1339.8C1337.97 272 1337.06 271.314 1335.91 269.714L1293.56 200.685L1251.66 269.714C1250.74 271.314 1249.6 272 1247.99 272H1217.77C1215.94 272 1215.03 271.086 1215.03 269.714C1215.03 269.029 1215.25 268.114 1215.71 267.657L1272.95 178.284L1219.6 94.6261Z" fill="#F9FAFB"/>
</svg>
