<svg width="32" height="41" viewBox="0 0 28 41" fill="none" xmlns="http://www.w3.org/2000/svg">
<path d="M19.3958 1.2725C21.7474 -0.559373 24.5547 0.125266 24.5547 0.125266C24.5547 0.125266 24.0807 3.51145 21.7292 5.34332C19.3776 7.17519 16.0052 6.7311 16.0052 6.7311C16.0052 6.7311 16.7344 5.62087 17.4635 4.15908C17.901 3.30791 18.5208 1.93863 19.3958 1.2725Z" fill="#1e2939"/>
<path d="M13.7266 4.02955C12.6328 3.17838 11.3203 3.49294 11.3203 3.49294C11.3203 3.49294 11.5391 5.08426 12.6328 5.93544C13.7266 6.78661 15.2943 6.58307 15.2943 6.58307C15.2943 6.58307 14.9479 6.06496 14.6198 5.38032C14.4193 4.97324 14.1276 4.34412 13.7266 4.02955Z" fill="#1e2939"/>
<path d="M14 12.1157C14.3281 12.1157 14.638 12.1342 14.9661 12.1527C14.6745 10.4133 14.7292 8.61848 15.6224 7.06416C14.0729 8.32242 13.3255 10.2468 12.9427 12.1712C13.2891 12.1342 13.6354 12.1157 14 12.1157Z" fill="#1e2939"/>
<path d="M14 12.6893C6.27083 12.6893 0 19.0361 0 26.8446C0 34.6717 6.27083 41 14 41C21.7292 41 28 34.6532 28 26.8446C27.9818 19.0361 21.7292 12.6893 14 12.6893ZM19.7057 32.6363L13.9818 28.658L8.25781 32.6363L12.1953 26.8446L8.25781 21.053L13.9818 25.0313L19.7057 21.053L15.7682 26.8446L19.7057 32.6363Z" fill="#1e2939"/>
</svg>
